<svg id="Ebene_1" data-name="Ebene 1" xmlns="http://www.w3.org/2000/svg" viewBox="0 0 600 218.12">
    <defs>
        <style>.cls-1{fill:#ffffff;}.cls-2{fill:#ffffff;}</style>
    </defs>
    <title>coda-logo</title>
    <path class="cls-1"
          d="M205.72,257.65l-21.11,20.88c-7.41-7.86-15.94-11.68-26-11.68-16.39,0-29,12.58-29,29.64s12.79,29.41,29,29.41c10.1,0,18.63-3.81,26-11.67l21.11,20.88c-12.8,14.14-28.52,21.1-47.15,21.1-17.51,0-32.33-5.61-44.46-17.06-11.9-11.45-18-25.6-18-42.66s6.06-31.21,18-42.66c12.13-11.45,27-17.29,44.46-17.29C177.2,236.54,192.92,243.5,205.72,257.65Z"
          transform="translate(-96 -196.81)"/>
    <path class="cls-1"
          d="M320.31,254.28c12.35,11.45,18.41,25.6,18.41,42.43s-6.06,31-18.41,42.66c-12.35,11.45-27.17,17.29-44.46,17.29-17.51,0-32.33-5.84-44.67-17.29C219.05,327.7,213,313.55,213,296.71s6.06-31,18.19-42.43c12.34-11.67,27.16-17.51,44.67-17.51Q301.78,236.77,320.31,254.28ZM255,317.82a29.83,29.83,0,0,0,41.77,0,29.35,29.35,0,0,0,8.53-21.11,28.44,28.44,0,0,0-8.53-20.87,29.28,29.28,0,0,0-41.77,0,28.44,28.44,0,0,0-8.53,20.87A29,29,0,0,0,255,317.82Z"
          transform="translate(-96 -196.81)"/>
    <path class="cls-1"
          d="M364.36,255.18c10.78-11.45,24.24-17.06,40.19-17.06,17.06,0,30.31,7,33.67,16.83V196.81h33.46V313.55c0,9,2.24,12.58,8.31,12.58,1.57,0,3.59-.23,5.61-.45v27.84a51.87,51.87,0,0,1-15,1.79c-7.41,0-13.7-1.34-18.42-4q-7.74-5-10.1-12.12c-7.41,11-19.76,16.39-37.49,16.39-15.95,0-29.41-5.61-40.19-16.84-10.55-11.45-15.94-25.37-15.94-42C348.42,280.33,353.81,266.41,364.36,255.18Zm67.13,61.74a27,27,0,0,0,8.75-20.21,26.22,26.22,0,0,0-8.75-20c-5.61-5.61-12.57-8.3-20.88-8.3a27.6,27.6,0,0,0-20.43,8.3,26.63,26.63,0,0,0-8.31,20,27.47,27.47,0,0,0,8.31,20.21A28.28,28.28,0,0,0,410.61,325Q423.08,325,431.49,316.92Z"
          transform="translate(-96 -196.81)"/>
    <path class="cls-1"
          d="M508.81,255.18c10.78-11.45,24.25-17.06,40.19-17.06,17.06,0,30.31,7,33.68,16.83V240.14h33.45v73.41c0,9,2.25,12.58,8.31,12.58,1.57,0,3.59-.23,5.61-.45v27.84c-3.59,1.12-8.53,1.79-15,1.79-7.41,0-13.7-1.34-18.41-4q-7.76-5-10.1-12.12c-7.41,11-19.76,16.39-37.5,16.39-15.94,0-29.41-5.61-40.19-16.84-10.55-11.45-15.94-25.37-15.94-42C492.87,280.33,498.26,266.41,508.81,255.18Zm67.13,61.74a27,27,0,0,0,8.76-20.21,26.23,26.23,0,0,0-8.76-20c-5.61-5.61-12.57-8.3-20.88-8.3a27.6,27.6,0,0,0-20.43,8.3,26.63,26.63,0,0,0-8.31,20,27.47,27.47,0,0,0,8.31,20.21A28.28,28.28,0,0,0,555.06,325Q567.53,325,575.94,316.92Z"
          transform="translate(-96 -196.81)"/>
    <path class="cls-2"
          d="M664.63,324.33a18.16,18.16,0,0,1,25.81,0,17.52,17.52,0,0,1,0,25.6,18.16,18.16,0,0,1-25.81,0A17.89,17.89,0,0,1,664.63,324.33Z"
          transform="translate(-96 -196.81)"/>
    <rect class="cls-1" y="189.12" width="534.14" height="29.01"/>
</svg>