<svg id="Ebene_1" data-name="Ebene 1" xmlns="http://www.w3.org/2000/svg" viewBox="0 0 533.9 159.85"><defs><style>.cls-1{fill:#400ddd;}</style></defs><title>coda-blue-typo</title><path class="cls-1" d="M109.56,60.84,88.46,81.72c-7.41-7.85-15.94-11.67-26-11.67-16.39,0-29,12.57-29,29.63s12.8,29.42,29,29.42c10.1,0,18.63-3.82,26-11.68l21.1,20.88c-12.79,14.15-28.51,21.11-47.14,21.11-17.52,0-32.34-5.62-44.46-17.07C6.06,130.89,0,116.75,0,99.68S6.06,68.48,18,57C30.08,45.58,44.9,39.74,62.42,39.74,81.05,39.74,96.77,46.7,109.56,60.84Z"/><path class="cls-1" d="M224.15,57.48c12.35,11.45,18.42,25.59,18.42,42.43s-6.07,31-18.42,42.66C211.81,154,197,159.85,179.7,159.85c-17.51,0-32.33-5.83-44.68-17.28-12.12-11.68-18.18-25.82-18.18-42.66s6.06-31,18.18-42.43C147.37,45.8,162.19,40,179.7,40Q205.64,40,224.15,57.48ZM158.82,121a29.8,29.8,0,0,0,41.76,0,29.31,29.31,0,0,0,8.53-21.1A28.45,28.45,0,0,0,200.58,79a29.26,29.26,0,0,0-41.76,0,28.45,28.45,0,0,0-8.53,20.88A29,29,0,0,0,158.82,121Z"/><path class="cls-1" d="M268.2,58.37C279,46.92,292.45,41.31,308.39,41.31c17.07,0,30.31,7,33.68,16.84V0h33.45V116.75c0,9,2.25,12.57,8.31,12.57a54.45,54.45,0,0,0,5.61-.45v27.84c-3.59,1.13-8.53,1.8-15,1.8-7.41,0-13.69-1.35-18.41-4q-7.74-5.06-10.1-12.13c-7.41,11-19.76,16.39-37.5,16.39-15.94,0-29.41-5.61-40.19-16.84-10.55-11.45-15.94-25.37-15.94-42C252.26,83.52,257.65,69.6,268.2,58.37Zm67.13,61.75a27,27,0,0,0,8.76-20.21,26.21,26.21,0,0,0-8.76-20c-5.61-5.61-12.57-8.31-20.87-8.31A27.63,27.63,0,0,0,294,79.93a26.61,26.61,0,0,0-8.3,20,27.47,27.47,0,0,0,8.3,20.21,28.35,28.35,0,0,0,20.44,8.08Q326.91,128.2,335.33,120.12Z"/><path class="cls-1" d="M412.66,58.37c10.78-11.45,24.24-17.06,40.19-17.06,17.06,0,30.31,7,33.67,16.84V43.33H520v73.42c0,9,2.24,12.57,8.31,12.57a54.45,54.45,0,0,0,5.61-.45v27.84c-3.6,1.13-8.54,1.8-15,1.8-7.41,0-13.7-1.35-18.42-4q-7.74-5.06-10.1-12.13c-7.41,11-19.76,16.39-37.49,16.39-16,0-29.41-5.61-40.19-16.84-10.55-11.45-15.94-25.37-15.94-42C396.72,83.52,402.11,69.6,412.66,58.37Zm67.13,61.75a27,27,0,0,0,8.75-20.21,26.2,26.2,0,0,0-8.75-20c-5.61-5.61-12.57-8.31-20.88-8.31a27.61,27.61,0,0,0-20.43,8.31,26.62,26.62,0,0,0-8.31,20,27.48,27.48,0,0,0,8.31,20.21,28.32,28.32,0,0,0,20.43,8.08Q471.38,128.2,479.79,120.12Z"/></svg>